<svg width="168" height="37" viewBox="0 0 168 37" fill="none" xmlns="http://www.w3.org/2000/svg">
<path d="M8.4 29.28C6.96267 29.28 5.712 29.0373 4.648 28.552C3.584 28.0667 2.76267 27.3853 2.184 26.508C1.60533 25.6307 1.316 24.5947 1.316 23.4H5.516C5.516 24.0907 5.77733 24.6413 6.3 25.052C6.84133 25.444 7.56933 25.64 8.484 25.64C9.36133 25.64 10.0427 25.444 10.528 25.052C11.032 24.66 11.284 24.1187 11.284 23.428C11.284 22.8307 11.0973 22.3173 10.724 21.888C10.3507 21.4587 9.828 21.1693 9.156 21.02L7.084 20.544C5.348 20.1333 3.99467 19.3773 3.024 18.276C2.072 17.156 1.596 15.7933 1.596 14.188C1.596 12.396 2.20267 10.968 3.416 9.904C4.62933 8.82133 6.272 8.28 8.344 8.28C10.4347 8.28 12.0867 8.80267 13.3 9.848C14.532 10.8747 15.148 12.2653 15.148 14.02H10.948C10.948 13.3667 10.7147 12.8533 10.248 12.48C9.8 12.1067 9.14667 11.92 8.288 11.92C7.48533 11.92 6.86933 12.1067 6.44 12.48C6.01067 12.8533 5.796 13.404 5.796 14.132C5.796 14.6733 5.97333 15.1587 6.328 15.588C6.70133 15.9987 7.23333 16.2787 7.924 16.428L9.968 16.904C11.7787 17.3147 13.1507 18.0613 14.084 19.144C15.0173 20.208 15.484 21.5707 15.484 23.232C15.484 24.4267 15.1853 25.4813 14.588 26.396C14.0093 27.3107 13.188 28.02 12.124 28.524C11.0787 29.028 9.83733 29.28 8.4 29.28ZM23.2011 29.28C21.6517 29.28 20.4197 28.86 19.5051 28.02C18.6091 27.18 18.1611 26.0413 18.1611 24.604C18.1611 23.036 18.7211 21.8413 19.8411 21.02C20.9611 20.18 22.5664 19.76 24.6571 19.76H27.5971V18.64C27.5971 18.024 27.3824 17.548 26.9531 17.212C26.5237 16.876 25.9264 16.708 25.1611 16.708C24.4144 16.708 23.8171 16.8573 23.3691 17.156C22.9397 17.4547 22.7251 17.856 22.7251 18.36H18.8051C18.8424 16.8107 19.4491 15.588 20.6251 14.692C21.8011 13.7773 23.3691 13.32 25.3291 13.32C27.3264 13.32 28.9037 13.796 30.0611 14.748C31.2184 15.6813 31.7971 16.9787 31.7971 18.64V29H27.7371V26.62H27.6531C27.3917 27.46 26.8784 28.1133 26.1131 28.58C25.3477 29.0467 24.3771 29.28 23.2011 29.28ZM24.7691 26.228C25.5904 26.228 26.2624 26.0133 26.7851 25.584C27.3264 25.1547 27.5971 24.5853 27.5971 23.876V22.252H24.7411C23.9944 22.252 23.4064 22.4293 22.9771 22.784C22.5664 23.12 22.3611 23.596 22.3611 24.212C22.3611 24.8467 22.5757 25.3413 23.0051 25.696C23.4344 26.0507 24.0224 26.228 24.7691 26.228ZM40.2421 29.28C38.7675 29.28 37.5635 28.7387 36.6301 27.656C35.7155 26.5547 35.2581 25.0893 35.2581 23.26V19.34C35.2581 17.5107 35.7155 16.0547 36.6301 14.972C37.5635 13.8707 38.7675 13.32 40.2421 13.32C41.2501 13.32 42.1088 13.5813 42.8181 14.104C43.5275 14.608 44.0501 15.3267 44.3861 16.26H44.4701L44.3301 12.76V8.56H48.5301V29H44.4701V26.34H44.3861C44.0501 27.2733 43.5275 28.0013 42.8181 28.524C42.1088 29.028 41.2501 29.28 40.2421 29.28ZM41.8661 25.64C42.6688 25.64 43.2755 25.416 43.6861 24.968C44.1155 24.5013 44.3301 23.8387 44.3301 22.98V19.62C44.3301 18.7613 44.1155 18.108 43.6861 17.66C43.2755 17.1933 42.6688 16.96 41.8661 16.96C41.1008 16.96 40.5035 17.1747 40.0741 17.604C39.6635 18.0333 39.4581 18.6587 39.4581 19.48V23.12C39.4581 23.9227 39.6635 24.548 40.0741 24.996C40.5035 25.4253 41.1008 25.64 41.8661 25.64ZM56.7792 29.28C55.2299 29.28 53.9979 28.86 53.0832 28.02C52.1872 27.18 51.7392 26.0413 51.7392 24.604C51.7392 23.036 52.2992 21.8413 53.4192 21.02C54.5392 20.18 56.1445 19.76 58.2352 19.76H61.1752V18.64C61.1752 18.024 60.9605 17.548 60.5312 17.212C60.1019 16.876 59.5045 16.708 58.7392 16.708C57.9925 16.708 57.3952 16.8573 56.9472 17.156C56.5179 17.4547 56.3032 17.856 56.3032 18.36H52.3832C52.4205 16.8107 53.0272 15.588 54.2032 14.692C55.3792 13.7773 56.9472 13.32 58.9072 13.32C60.9045 13.32 62.4819 13.796 63.6392 14.748C64.7965 15.6813 65.3752 16.9787 65.3752 18.64V29H61.3152V26.62H61.2312C60.9699 27.46 60.4565 28.1133 59.6912 28.58C58.9259 29.0467 57.9552 29.28 56.7792 29.28ZM58.3472 26.228C59.1685 26.228 59.8405 26.0133 60.3632 25.584C60.9045 25.1547 61.1752 24.5853 61.1752 23.876V22.252H58.3192C57.5725 22.252 56.9845 22.4293 56.5552 22.784C56.1445 23.12 55.9392 23.596 55.9392 24.212C55.9392 24.8467 56.1539 25.3413 56.5832 25.696C57.0125 26.0507 57.6005 26.228 58.3472 26.228ZM69.4523 29V13.6H73.5123V16.54H73.5963C73.8016 15.532 74.2776 14.748 75.0243 14.188C75.7896 13.6093 76.7509 13.32 77.9083 13.32C79.4763 13.32 80.7363 13.852 81.6883 14.916C82.6403 15.9613 83.1163 17.3893 83.1163 19.2V20.6H78.6363V19.48C78.6363 18.6773 78.4216 18.0613 77.9923 17.632C77.5816 17.184 76.9749 16.96 76.1723 16.96C74.4923 16.96 73.6523 17.912 73.6523 19.816V29H69.4523ZM159.502 29.28C158.643 29.28 157.952 29.028 157.43 28.524C156.926 28.0013 156.674 27.3107 156.674 26.452C156.674 25.5747 156.926 24.884 157.43 24.38C157.952 23.876 158.643 23.624 159.502 23.624C160.379 23.624 161.07 23.876 161.574 24.38C162.078 24.884 162.33 25.5747 162.33 26.452C162.33 27.3107 162.078 28.0013 161.574 28.524C161.07 29.028 160.379 29.28 159.502 29.28Z" fill="black" fill-opacity="0.75"/>
<path d="M85.7093 29V8.56H92.3453C93.764 8.56 94.996 8.83067 96.0413 9.372C97.1053 9.91333 97.9266 10.6787 98.5053 11.668C99.1026 12.6387 99.4013 13.7867 99.4013 15.112V22.42C99.4013 23.7267 99.1026 24.8747 98.5053 25.864C97.9266 26.8533 97.1053 27.628 96.0413 28.188C94.996 28.7293 93.764 29 92.3453 29H85.7093ZM89.9093 25.22H92.3453C93.1853 25.22 93.8666 24.9587 94.3893 24.436C94.9306 23.9133 95.2013 23.2413 95.2013 22.42V15.112C95.2013 14.2907 94.9306 13.628 94.3893 13.124C93.8666 12.6013 93.1853 12.34 92.3453 12.34H89.9093V25.22ZM102.694 29V25.22H107.79V17.38H103.254V13.6H111.99V25.22H116.414V29H102.694ZM109.694 11.164C108.929 11.164 108.313 10.968 107.846 10.576C107.398 10.184 107.174 9.652 107.174 8.98C107.174 8.308 107.398 7.776 107.846 7.384C108.313 6.992 108.929 6.796 109.694 6.796C110.46 6.796 111.066 6.992 111.514 7.384C111.981 7.776 112.214 8.308 112.214 8.98C112.214 9.652 111.981 10.184 111.514 10.576C111.066 10.968 110.46 11.164 109.694 11.164ZM119.819 29V13.6H123.879V16.54H123.963C124.169 15.532 124.645 14.748 125.391 14.188C126.157 13.6093 127.118 13.32 128.275 13.32C129.843 13.32 131.103 13.852 132.055 14.916C133.007 15.9613 133.483 17.3893 133.483 19.2V20.6H129.003V19.48C129.003 18.6773 128.789 18.0613 128.359 17.632C127.949 17.184 127.342 16.96 126.539 16.96C124.859 16.96 124.019 17.912 124.019 19.816V29H119.819ZM136.273 29V25.22H141.369V17.38H136.833V13.6H145.569V25.22H149.993V29H136.273ZM143.273 11.164C142.507 11.164 141.891 10.968 141.425 10.576C140.977 10.184 140.753 9.652 140.753 8.98C140.753 8.308 140.977 7.776 141.425 7.384C141.891 6.992 142.507 6.796 143.273 6.796C144.038 6.796 144.645 6.992 145.093 7.384C145.559 7.776 145.793 8.308 145.793 8.98C145.793 9.652 145.559 10.184 145.093 10.576C144.645 10.968 144.038 11.164 143.273 11.164Z" fill="#F3906E"/>
</svg>
