<svg width="88" height="113" viewBox="0 0 88 113" fill="none" xmlns="http://www.w3.org/2000/svg">
<g filter="url(#filter0_d_900_718)">
<circle cx="44" cy="65" r="38.5" stroke="#2A435F" stroke-width="3"/>
<path d="M42.9393 68.0607C43.5251 68.6464 44.4749 68.6464 45.0607 68.0607L54.6066 58.5147C55.1924 57.9289 55.1924 56.9792 54.6066 56.3934C54.0208 55.8076 53.0711 55.8076 52.4853 56.3934L44 64.8787L35.5147 56.3934C34.9289 55.8076 33.9792 55.8076 33.3934 56.3934C32.8076 56.9792 32.8076 57.9289 33.3934 58.5147L42.9393 68.0607ZM42.5 6.55671e-08L42.5 67L45.5 67L45.5 -6.55671e-08L42.5 6.55671e-08Z" fill="#2A435F"/>
</g>
<defs>
<filter id="filter0_d_900_718" x="0" y="0" width="88" height="113" filterUnits="userSpaceOnUse" color-interpolation-filters="sRGB">
<feFlood flood-opacity="0" result="BackgroundImageFix"/>
<feColorMatrix in="SourceAlpha" type="matrix" values="0 0 0 0 0 0 0 0 0 0 0 0 0 0 0 0 0 0 127 0" result="hardAlpha"/>
<feOffset dy="4"/>
<feGaussianBlur stdDeviation="2"/>
<feComposite in2="hardAlpha" operator="out"/>
<feColorMatrix type="matrix" values="0 0 0 0 0 0 0 0 0 0 0 0 0 0 0 0 0 0 0.25 0"/>
<feBlend mode="normal" in2="BackgroundImageFix" result="effect1_dropShadow_900_718"/>
<feBlend mode="normal" in="SourceGraphic" in2="effect1_dropShadow_900_718" result="shape"/>
</filter>
</defs>
</svg>
