<svg width="32" height="32" viewBox="0 0 32 32" fill="none" xmlns="http://www.w3.org/2000/svg">
<g opacity="0.29">
<path d="M24.4857 20.7138L22.6 18.8282L24.4857 16.9426C27.0892 14.3391 27.0892 10.118 24.4857 7.51455C21.8821 4.91105 17.6611 4.91105 15.0576 7.51455L13.172 9.40017L11.2864 7.51455L13.172 5.62893C16.8169 1.98404 22.7264 1.98404 26.3713 5.62893C30.0161 9.27383 30.0161 15.1834 26.3713 18.8282L24.4857 20.7138ZM20.7144 24.4851L18.8288 26.3707C15.184 30.0157 9.27441 30.0157 5.62951 26.3707C1.98462 22.7258 1.98462 16.8163 5.62951 13.1714L7.51513 11.2858L9.40074 13.1714L7.51513 15.057C4.91163 17.6605 4.91163 21.8817 7.51513 24.4851C10.1186 27.0886 14.3397 27.0886 16.9432 24.4851L18.8288 22.5995L20.7144 24.4851ZM19.7716 10.343L21.6572 12.2286L12.2292 21.6567L10.3436 19.771L19.7716 10.343Z" fill="black"/>
</g>
</svg>
