<svg width="91" height="79" viewBox="0 0 91 79" fill="none" xmlns="http://www.w3.org/2000/svg">
<path d="M27.5 10.3906H38.5C44.3348 10.3906 49.9305 12.6953 54.0564 16.7977C58.1822 20.9 60.5 26.464 60.5 32.2656C60.5 38.0672 58.1822 43.6312 54.0564 47.7336C49.9305 51.8359 44.3348 54.1406 38.5 54.1406V63.7109C24.75 58.2422 5.5 50.0391 5.5 32.2656C5.5 26.464 7.81785 20.9 11.9437 16.7977C16.0695 12.6953 21.6652 10.3906 27.5 10.3906Z" fill="white"/>
<g clip-path="url(#clip0_179_495)">
<path d="M60.6666 23.2188H69.3333C73.9303 23.2188 78.3391 25.0625 81.5898 28.3444C84.8404 31.6263 86.6666 36.0775 86.6666 40.7188C86.6666 45.36 84.8404 49.8112 81.5898 53.0931C78.3391 56.375 73.9303 58.2188 69.3333 58.2188V65.875C58.4999 61.5 43.3333 54.9375 43.3333 40.7188C43.3333 36.0775 45.1594 31.6263 48.4101 28.3444C51.6607 25.0625 56.0695 23.2188 60.6666 23.2188Z" fill="#FCEEC3"/>
</g>
<defs>
<clipPath id="clip0_179_495">
<rect width="52" height="60" fill="white" transform="translate(39 19)"/>
</clipPath>
</defs>
</svg>
