<svg width="65" height="59" viewBox="0 0 65 59" fill="none" xmlns="http://www.w3.org/2000/svg">
<path d="M38.6964 24.4401C38.1338 23.8777 37.3709 23.5617 36.5754 23.5617C35.7799 23.5617 35.017 23.8777 34.4544 24.4401L32.3334 26.5581C31.7799 27.1311 31.1178 27.5882 30.3858 27.9027C29.6538 28.2171 28.8665 28.3827 28.0698 28.3896C27.2731 28.3965 26.483 28.2447 25.7457 27.943C25.0083 27.6413 24.3384 27.1958 23.775 26.6325C23.2116 26.0691 22.7661 25.3992 22.4644 24.6618C22.1628 23.9244 22.0109 23.1344 22.0179 22.3377C22.0248 21.541 22.1903 20.7537 22.5048 20.0217C22.8192 19.2896 23.2763 18.6276 23.8494 18.0741L40.7394 1.17809C44.7382 0.268567 48.9219 0.642883 52.6957 2.24781C56.4695 3.85274 59.6413 6.60658 61.76 10.1178C63.8788 13.6289 64.8366 17.7187 64.4974 21.8056C64.1581 25.8924 62.539 29.7683 59.8704 32.8821L53.5464 39.2871L38.6964 24.4401ZM5.81637 6.40409C8.92065 3.30022 12.981 1.33402 17.3411 0.823386C21.7011 0.312748 26.1059 1.28751 29.8434 3.59009L19.6044 13.8321C17.3868 16.0453 16.1227 19.038 16.0822 22.1708C16.0417 25.3035 17.228 28.3279 19.3877 30.5977C21.5474 32.8674 24.5091 34.2025 27.64 34.3177C30.771 34.4329 33.8228 33.319 36.1434 31.2141L36.5754 30.8031L49.3044 43.5291L36.5754 56.2581C35.4502 57.3829 33.9244 58.0148 32.3334 58.0148C30.7424 58.0148 29.2165 57.3829 28.0914 56.2581L5.81337 33.9801C2.15677 30.3232 0.102539 25.3635 0.102539 20.1921C0.102539 15.0207 2.15977 10.061 5.81637 6.40409Z" fill="white"/>
</svg>
